<svg version="1.1" id="Layer_1" xmlns="http://www.w3.org/2000/svg" xmlns:xlink="http://www.w3.org/1999/xlink" x="0px" y="0px"
	 width="100%" viewBox="0 0 451 112" enable-background="new 0 0 451 112" xml:space="preserve">
<path fill="#FDFCFC" opacity="1.000000" stroke="none" 
	d="
M182.000000,1.000000 
	C252.354233,1.000000 322.708466,1.000000 393.354797,1.353668 
	C390.670471,2.436991 387.692169,3.159271 384.717896,3.897743 
	C377.190887,5.766588 369.634155,7.531323 362.175720,9.642835 
	C361.125977,9.940016 359.902466,11.933867 359.878479,13.164215 
	C359.736511,20.439341 359.925201,27.720919 359.928558,35.351707 
	C361.120148,35.505543 362.385773,35.307995 364.006439,35.115303 
	C376.851990,30.493496 389.706604,28.651993 402.997314,29.964638 
	C413.281799,30.980377 418.863892,36.107845 418.914917,45.065208 
	C416.439636,45.065208 413.956757,44.947300 411.488281,45.085655 
	C400.909698,45.678562 390.173462,45.408543 379.795898,47.198849 
	C362.475739,50.186882 352.365326,62.288639 352.550110,77.748123 
	C352.769440,96.099052 362.760895,108.182365 380.824768,111.363564 
	C395.723053,113.987259 408.145874,108.412018 419.333069,99.230164 
	C419.496582,103.027885 419.496582,106.444435 419.496582,110.000000 
	C430.817780,110.000000 441.408905,110.000000 452.000000,110.000000 
	C452.000000,110.998344 452.000000,111.996696 452.000000,112.997520 
	C364.979095,113.000000 277.958221,113.000000 190.477798,112.786011 
	C190.018280,112.572014 190.071381,112.146935 190.482452,112.102966 
	C197.827347,110.441536 204.896667,109.251427 211.663040,107.105888 
	C221.674225,103.931450 221.582657,103.642616 221.582657,93.427010 
	C221.582657,87.903419 221.582642,82.379829 221.582642,76.144661 
	C208.261505,82.022629 195.422470,84.343124 182.121796,83.766891 
	C170.784821,83.275726 161.217606,79.674461 156.806396,67.716072 
	C156.596466,67.232262 156.375885,66.999901 156.146393,66.830238 
	C156.137512,66.892937 156.259644,66.859360 156.252411,66.628250 
	C156.245163,66.397133 156.016022,65.995148 156.079590,65.799316 
	C156.143173,65.603485 156.170288,65.192596 156.626312,65.148567 
	C179.393265,65.039597 201.704163,64.974655 224.341034,64.893906 
	C224.736832,64.265015 224.806671,63.651917 224.941238,62.575092 
	C224.363571,54.512554 224.312790,46.807114 222.966049,39.335255 
	C219.170670,18.278099 202.129913,2.777788 182.081085,1.632075 
	C182.049911,1.421953 182.000000,1.000000 182.000000,1.000000 
M229.342422,108.040642 
	C228.987030,108.571251 228.631638,109.101852 228.276245,109.632469 
	C228.851776,109.761047 229.427292,109.889626 230.920914,110.223137 
	C242.042221,110.236450 253.167709,110.409546 264.281006,110.117752 
	C266.313873,110.064384 268.956665,108.612511 270.191742,106.962982 
	C276.340759,98.750549 282.113342,90.256294 288.617523,82.189804 
	C295.007446,90.681671 301.336945,99.220413 307.852966,107.614395 
	C308.820068,108.860199 310.659485,110.171051 312.107513,110.184998 
	C324.732819,110.306488 337.360870,110.139244 350.728790,110.131477 
	C350.817780,109.754646 350.906738,109.377808 350.816223,108.341957 
	C337.559570,90.627258 324.302948,72.912552 311.176178,55.371361 
	C323.304352,38.538170 335.045929,22.241505 347.139496,5.360448 
	C346.762939,4.929417 346.386353,4.498386 345.088074,3.877173 
	C333.388947,3.930954 321.689850,3.984735 309.365967,3.988065 
	C309.094330,4.292067 308.822693,4.596068 308.028961,5.285549 
	C302.540375,13.691264 297.051788,22.096979 291.283234,30.931408 
	C287.202820,24.990032 283.466095,19.361788 279.533508,13.873924 
	C275.328156,8.005458 269.825012,4.053781 262.331146,3.973581 
	C251.886963,3.861806 241.440048,4.003418 230.373184,4.017305 
	C230.547089,4.456985 230.720993,4.896666 231.055588,5.975801 
	C243.479996,22.596767 255.904419,39.217735 267.932617,56.440067 
	C266.836884,57.907059 265.736053,59.370255 264.646240,60.841621 
	C253.067398,76.474030 241.490311,92.107735 229.342422,108.040642 
z"/>
<path fill="#3C3C3B" opacity="1.000000" stroke="none" 
	d="
M63.000000,1.000000 
	C63.000000,1.000000 63.500000,1.000000 63.882145,1.316555 
	C65.156136,1.686558 66.047989,1.740005 67.348015,1.856702 
	C68.855118,1.887936 69.954041,1.855922 71.435722,1.879834 
	C72.589935,1.907267 73.361382,1.878773 74.520813,1.890921 
	C78.114281,2.621701 81.536240,2.810961 84.488541,4.086929 
	C98.813553,10.278141 105.106125,21.926151 105.847183,37.155960 
	C105.849846,38.244690 106.076027,39.158371 106.446671,40.514572 
	C106.563217,63.648705 106.535301,86.340309 106.267227,109.083275 
	C105.681206,109.436455 105.335342,109.738274 104.533211,110.153442 
	C93.375107,110.238991 82.673256,110.211197 71.845772,109.947639 
	C71.453804,109.477707 71.187469,109.243538 70.870529,108.542435 
	C70.815186,88.446251 70.845551,68.816856 70.768204,49.187889 
	C70.756500,46.216385 70.542915,43.179939 69.896942,40.291096 
	C68.744255,35.136189 65.474915,31.948643 60.136555,30.919161 
	C52.602802,29.466303 45.936680,31.635376 40.004257,36.002155 
	C38.467751,37.133156 37.249035,39.650211 37.142857,41.599159 
	C36.754379,48.729927 36.896965,55.889618 36.630104,63.202415 
	C36.284622,63.869537 36.148579,64.372658 35.547302,64.942871 
	C24.377562,64.968307 13.673056,64.926643 2.871623,64.693954 
	C2.594133,64.268196 2.361205,64.111092 2.048519,63.561722 
	C2.025489,43.656494 2.029852,24.221172 2.495899,4.839625 
	C7.118764,4.891897 11.520812,5.771549 15.393065,4.713062 
	C24.635136,2.186724 31.683641,5.966290 35.199547,13.814035 
	C42.662483,10.145710 50.130180,6.424641 57.652039,2.816485 
	C59.337349,2.008058 61.212334,1.595050 63.000000,1.000000 
z"/>
<path fill="#3D3D3C" opacity="1.000000" stroke="none" 
	d="
M419.169556,98.848976 
	C408.145874,108.412018 395.723053,113.987259 380.824768,111.363564 
	C362.760895,108.182365 352.769440,96.099052 352.550110,77.748123 
	C352.365326,62.288639 362.475739,50.186882 379.795898,47.198849 
	C390.173462,45.408543 400.909698,45.678562 411.488281,45.085655 
	C413.956757,44.947300 416.439636,45.065208 418.914917,45.065208 
	C418.863892,36.107845 413.281799,30.980377 402.997314,29.964638 
	C389.706604,28.651993 376.851990,30.493496 363.548523,35.090431 
	C361.824554,35.040577 360.913605,35.020451 360.002625,35.000324 
	C359.925201,27.720919 359.736511,20.439341 359.878479,13.164215 
	C359.902466,11.933867 361.125977,9.940016 362.175720,9.642835 
	C369.634155,7.531323 377.190887,5.766588 384.717896,3.897743 
	C387.692169,3.159271 390.670471,2.436991 393.823486,1.353668 
	C394.444458,1.000000 394.888885,1.000000 395.884979,1.369884 
	C401.330811,1.790005 406.224976,1.840241 411.540405,1.908617 
	C429.077271,2.801611 444.093201,13.511781 449.125000,30.304407 
	C450.092590,33.533504 451.042145,36.767990 452.000000,40.000000 
	C452.000000,48.020901 452.000000,56.041798 451.736267,64.539200 
	C451.301331,64.975281 451.130157,64.934860 450.872742,64.744743 
	C450.534576,64.703491 450.282654,64.811943 449.564941,64.993179 
	C439.268036,65.142357 429.436920,65.218758 419.420105,65.257874 
	C419.234375,65.220596 418.958160,64.961342 418.887360,64.800293 
	C418.552460,64.718147 418.288330,64.797043 417.560211,64.956848 
	C408.657196,65.426086 400.128845,65.196342 391.807709,66.399658 
	C385.232513,67.350479 382.182556,73.133408 383.724365,78.937317 
	C385.290710,84.833313 391.623016,87.662964 397.693451,87.252159 
	C404.931824,86.762299 411.194824,83.364853 418.391052,82.567841 
	C418.839478,88.248955 419.004517,93.548965 419.169556,98.848976 
z"/>
<path fill="#FDFDFD" opacity="1.000000" stroke="none" 
	d="
M106.070694,36.980911 
	C105.106125,21.926151 98.813553,10.278141 84.488541,4.086929 
	C81.536240,2.810961 78.114281,2.621701 74.476288,1.680129 
	C74.043785,1.428695 74.000000,1.000000 74.000000,1.000000 
	C105.354225,1.000000 136.708450,1.000000 168.381042,1.359681 
	C137.268875,6.522160 120.483910,32.854645 124.061752,64.284073 
	C124.057098,64.725418 124.109306,64.899765 124.101044,65.416687 
	C124.325195,66.854141 124.609840,67.949020 124.851677,69.377258 
	C124.906868,70.145729 125.004868,70.580849 125.060181,71.337929 
	C125.325958,72.447372 125.634407,73.234848 125.922897,74.396599 
	C126.629944,76.848259 127.356949,78.925636 128.091919,81.343842 
	C128.685059,82.646111 129.270248,83.607552 129.876129,84.902206 
	C137.874084,100.845787 151.087494,109.055168 167.947784,112.355270 
	C167.969604,112.569801 168.000000,113.000000 168.000000,113.000000 
	C113.494591,113.000000 58.989155,113.011230 4.483875,112.927475 
	C3.271366,112.925613 0.516284,114.532013 1.246169,110.583679 
	C1.659162,110.120293 1.825987,110.073235 2.245474,110.097366 
	C2.666083,110.119232 2.834030,110.069901 3.461335,110.121658 
	C14.613249,110.155373 25.305807,110.087997 36.280708,110.033844 
	C36.657196,109.706932 36.751343,109.366806 36.917480,108.561249 
	C36.939651,94.395172 36.889839,80.694534 36.896744,66.750168 
	C36.915958,66.343880 36.878452,66.181328 36.899048,65.759392 
	C36.917648,65.327271 36.878151,65.154526 36.907890,64.660355 
	C36.931267,63.905426 36.885403,63.471920 36.839539,63.038418 
	C36.896965,55.889618 36.754379,48.729927 37.142857,41.599159 
	C37.249035,39.650211 38.467751,37.133156 40.004257,36.002155 
	C45.936680,31.635376 52.602802,29.466303 60.136555,30.919161 
	C65.474915,31.948643 68.744255,35.136189 69.896942,40.291096 
	C70.542915,43.179939 70.756500,46.216385 70.768204,49.187889 
	C70.845551,68.816856 70.815186,88.446251 70.843529,108.878654 
	C71.235237,109.848999 71.603325,110.016197 71.971413,110.183395 
	C82.673256,110.211197 93.375107,110.238991 104.818710,110.223557 
	C105.876106,109.797516 106.191742,109.414719 106.507385,109.031921 
	C106.535301,86.340309 106.563217,63.648705 106.551529,40.212685 
	C106.364845,38.639153 106.217766,37.810032 106.070694,36.980911 
z"/>
<path fill="#3C3C3B" opacity="1.000000" stroke="none" 
	d="
M124.118599,64.017059 
	C120.483910,32.854645 137.268875,6.522160 168.849701,1.359681 
	C169.444443,1.000000 169.888901,1.000000 170.814148,1.304995 
	C172.176422,1.670577 173.057892,1.731165 174.363770,1.861363 
	C176.219269,1.896813 177.650345,1.862652 179.459000,1.874781 
	C180.595123,1.894780 181.353683,1.868489 182.112244,1.842197 
	C202.129913,2.777788 219.170670,18.278099 222.966049,39.335255 
	C224.312790,46.807114 224.363571,54.512554 224.706482,62.724342 
	C224.276352,63.861454 224.145706,64.385582 224.015076,64.909714 
	C201.704163,64.974655 179.393265,65.039597 156.149597,65.095970 
	C145.134491,65.140991 135.052170,65.194588 124.956253,65.161560 
	C124.942673,65.074951 125.001076,64.909615 124.905029,64.715752 
	C124.631012,64.282295 124.400879,64.114021 124.118599,64.017059 
M162.025345,32.501858 
	C159.913940,36.331055 157.802536,40.160255 155.340012,44.626247 
	C168.912125,44.626247 180.807922,44.626247 192.708496,44.626247 
	C192.286957,32.681984 184.741959,25.611477 173.866165,27.444477 
	C169.949387,28.104609 166.313797,30.433182 162.025345,32.501858 
z"/>
<path fill="#E95B0C" opacity="1.000000" stroke="none" 
	d="
M419.333069,99.230164 
	C419.004517,93.548965 418.839478,88.248955 418.520050,82.294563 
	C418.779053,76.191841 419.192444,70.743500 419.605835,65.295151 
	C429.436920,65.218758 439.268036,65.142357 449.798157,65.029755 
	C450.497192,64.993561 450.959015,64.894447 450.959015,64.894447 
	C451.130157,64.934860 451.301331,64.975281 451.736267,65.007851 
	C452.000000,79.687561 452.000000,94.375122 452.000000,109.531342 
	C441.408905,110.000000 430.817780,110.000000 419.496582,110.000000 
	C419.496582,106.444435 419.496582,103.027885 419.333069,99.230164 
z"/>
<path fill="#FCFCFC" opacity="1.000000" stroke="none" 
	d="
M452.000000,39.531342 
	C451.042145,36.767990 450.092590,33.533504 449.125000,30.304407 
	C444.093201,13.511781 429.077271,2.801611 411.480103,1.690080 
	C410.998566,1.453404 411.000000,1.000000 411.000000,1.000000 
	C424.591492,1.000000 438.182983,1.000000 452.000000,1.000000 
	C452.000000,13.686671 452.000000,26.374678 452.000000,39.531342 
z"/>
<path fill="#F8F8F8" opacity="1.000000" stroke="none" 
	d="
M62.531342,1.000000 
	C61.212334,1.595050 59.337349,2.008058 57.652039,2.816485 
	C50.130180,6.424641 42.662483,10.145710 35.199547,13.814035 
	C31.683641,5.966290 24.635136,2.186724 15.393065,4.713062 
	C11.520812,5.771549 7.118764,4.891897 2.439534,4.589392 
	C1.614324,4.190257 1.307162,4.095128 1.000000,4.000000 
	C1.000000,3.006780 1.000000,2.013560 1.000000,1.000000 
	C21.354223,1.000000 41.708454,1.000000 62.531342,1.000000 
z"/>
<path fill="#686867" opacity="1.000000" stroke="none" 
	d="
M1.000000,4.468657 
	C1.307162,4.095128 1.614324,4.190257 1.977851,4.535618 
	C2.029852,24.221172 2.025489,43.656494 2.025469,63.766060 
	C2.029813,64.440300 2.057684,64.851151 2.058996,64.947266 
	C2.060308,65.043381 2.008906,65.228622 1.761440,65.150452 
	C1.342650,65.048187 1.171325,65.024094 1.000000,65.000000 
	C1.000000,44.979103 1.000000,24.958210 1.000000,4.468657 
z"/>
<path fill="#EE7E4B" opacity="1.000000" stroke="none" 
	d="
M1.000000,65.468658 
	C1.171325,65.024094 1.342650,65.048187 1.779661,65.360214 
	C2.045348,65.648140 2.083534,66.067863 2.061714,66.297272 
	C2.039894,66.526672 2.068626,66.987602 2.039245,67.456215 
	C2.024035,81.624565 2.038205,95.324303 2.031540,109.274223 
	C2.004741,109.691658 1.998776,109.858917 1.992812,110.026184 
	C1.825987,110.073235 1.659162,110.120293 1.246169,110.083679 
	C1.000000,95.312439 1.000000,80.624878 1.000000,65.468658 
z"/>
<path fill="#868685" opacity="1.000000" stroke="none" 
	d="
M410.533875,1.000000 
	C411.000000,1.000000 410.998566,1.453404 411.058868,1.671940 
	C406.224976,1.840241 401.330811,1.790005 396.218323,1.369884 
	C400.689240,1.000000 405.378510,1.000000 410.533875,1.000000 
z"/>
<path fill="#EE7E4B" opacity="1.000000" stroke="none" 
	d="
M184.000000,113.000000 
	C180.307098,113.000000 176.614182,113.000000 172.434326,112.742661 
	C171.956818,112.313133 171.966278,112.140938 172.439621,111.956421 
	C176.635132,112.009850 180.366760,112.075600 184.047821,112.353043 
	C183.997269,112.564728 184.000000,113.000000 184.000000,113.000000 
z"/>
<path fill="#E95400" opacity="1.000000" stroke="none" 
	d="
M171.975739,111.968750 
	C171.966278,112.140938 171.956818,112.313133 171.973679,112.742661 
	C170.933212,113.000000 169.866425,113.000000 168.399811,113.000000 
	C168.000000,113.000000 167.969604,112.569801 168.149063,112.076302 
	C169.544266,111.711449 170.759995,111.840096 171.975739,111.968750 
z"/>
<path fill="#E95400" opacity="1.000000" stroke="none" 
	d="
M190.071381,112.146935 
	C190.071381,112.146935 190.018280,112.572014 190.009140,112.786011 
	C189.250000,113.000000 188.500000,113.000000 187.376419,112.772247 
	C187.002838,112.544495 186.940277,112.093285 187.133911,111.826202 
	C188.242142,111.755051 189.156769,111.950996 190.071381,112.146935 
z"/>
<path fill="#7D7D7D" opacity="1.000000" stroke="none" 
	d="
M179.081436,1.828492 
	C177.650345,1.862652 176.219269,1.896813 174.381210,1.663909 
	C173.974243,1.396844 174.000000,1.000000 174.000000,1.000000 
	C175.388885,1.000000 176.777786,1.000000 178.594757,1.208000 
	C179.022858,1.416001 179.081436,1.828492 179.081436,1.828492 
z"/>
<path fill="#7D7D7D" opacity="1.000000" stroke="none" 
	d="
M71.052963,1.823907 
	C69.954041,1.855922 68.855118,1.887936 67.365509,1.658852 
	C66.974815,1.397752 67.000000,1.000000 67.000000,1.000000 
	C68.066650,1.000000 69.133301,1.000000 70.608505,1.206279 
	C71.017067,1.412558 71.052963,1.823907 71.052963,1.823907 
z"/>
<path fill="#F2A182" opacity="1.000000" stroke="none" 
	d="
M186.940277,112.093285 
	C186.940277,112.093285 187.002838,112.544495 187.001419,112.772247 
	C186.250000,113.000000 185.500000,113.000000 184.375000,113.000000 
	C184.000000,113.000000 183.997269,112.564728 184.401596,112.317039 
	C185.517380,112.077332 186.228821,112.085304 186.940277,112.093285 
z"/>
<path fill="#939392" opacity="1.000000" stroke="none" 
	d="
M66.625000,1.000000 
	C67.000000,1.000000 66.974815,1.397752 66.957321,1.595602 
	C66.047989,1.740005 65.156136,1.686558 64.132141,1.316555 
	C64.750000,1.000000 65.500000,1.000000 66.625000,1.000000 
z"/>
<path fill="#939392" opacity="1.000000" stroke="none" 
	d="
M71.435722,1.879834 
	C71.052963,1.823907 71.017067,1.412558 71.008530,1.206279 
	C71.750000,1.000000 72.500000,1.000000 73.625000,1.000000 
	C74.000000,1.000000 74.043785,1.428695 74.088310,1.639487 
	C73.361382,1.878773 72.589935,1.907267 71.435722,1.879834 
z"/>
<path fill="#939392" opacity="1.000000" stroke="none" 
	d="
M173.625000,1.000000 
	C174.000000,1.000000 173.974243,1.396844 173.956802,1.594298 
	C173.057892,1.731165 172.176422,1.670577 171.147476,1.304995 
	C171.750000,1.000000 172.500000,1.000000 173.625000,1.000000 
z"/>
<path fill="#A2A2A2" opacity="1.000000" stroke="none" 
	d="
M179.459000,1.874781 
	C179.081436,1.828492 179.022858,1.416001 179.011429,1.208000 
	C179.750000,1.000000 180.500000,1.000000 181.625000,1.000000 
	C182.000000,1.000000 182.049911,1.421953 182.081085,1.632075 
	C181.353683,1.868489 180.595123,1.894780 179.459000,1.874781 
z"/>
<path fill="#3C3C3B" opacity="1.000000" stroke="none" 
	d="
M230.994308,4.036589 
	C241.440048,4.003418 251.886963,3.861806 262.331146,3.973581 
	C269.825012,4.053781 275.328156,8.005458 279.533508,13.873924 
	C283.466095,19.361788 287.202820,24.990032 291.283234,30.931408 
	C297.051788,22.096979 302.540375,13.691264 308.579529,5.033533 
	C309.416992,4.533852 309.703857,4.286188 309.990723,4.038520 
	C321.689850,3.984735 333.388947,3.930954 345.550110,4.241170 
	C346.270630,5.051720 346.529083,5.498272 346.787537,5.944833 
	C335.045929,22.241505 323.304352,38.538170 311.176178,55.371361 
	C324.302948,72.912552 337.559570,90.627258 350.680176,108.785873 
	C350.358826,109.505775 350.173462,109.781769 349.988129,110.057762 
	C337.360870,110.139244 324.732819,110.306488 312.107513,110.184998 
	C310.659485,110.171051 308.820068,108.860199 307.852966,107.614395 
	C301.336945,99.220413 295.007446,90.681671 288.202759,81.712616 
	C281.301575,72.769852 274.815216,64.304276 268.328827,55.838699 
	C255.904419,39.217735 243.479996,22.596767 231.017059,5.332203 
	C230.983810,4.471266 230.989059,4.253927 230.994308,4.036589 
z"/>
<path fill="#EA5B0C" opacity="1.000000" stroke="none" 
	d="
M187.133911,111.826202 
	C186.228821,112.085304 185.517380,112.077332 184.452148,112.105354 
	C180.366760,112.075600 176.635132,112.009850 172.439621,111.956421 
	C170.759995,111.840096 169.544266,111.711449 168.127228,111.861771 
	C151.087494,109.055168 137.874084,100.845787 129.907166,84.506554 
	C129.306320,82.852798 128.695145,81.927910 128.083954,81.003021 
	C127.356949,78.925636 126.629944,76.848259 126.163864,74.237686 
	C125.984154,72.808319 125.543510,71.912140 125.102859,71.015961 
	C125.004868,70.580849 124.906868,70.145729 125.129219,69.178261 
	C125.632126,67.771309 125.814690,66.896721 126.465958,66.010071 
	C136.289764,65.998619 145.644882,65.999222 155.142487,66.228218 
	C155.609848,66.590866 155.934753,66.725113 156.259644,66.859360 
	C156.259644,66.859360 156.137512,66.892937 156.169159,67.069504 
	C156.302719,67.566078 156.501038,67.806557 156.795746,67.967514 
	C161.217606,79.674461 170.784821,83.275726 182.121796,83.766891 
	C195.422470,84.343124 208.261505,82.022629 221.582642,76.144661 
	C221.582642,82.379829 221.582657,87.903419 221.582657,93.427010 
	C221.582657,103.642616 221.674225,103.931450 211.663040,107.105888 
	C204.896667,109.251427 197.827347,110.441536 190.482452,112.102966 
	C189.156769,111.950996 188.242142,111.755051 187.133911,111.826202 
z"/>
<path fill="#EA5B0C" opacity="1.000000" stroke="none" 
	d="
M268.130737,56.139385 
	C274.815216,64.304276 281.301575,72.769852 287.903198,81.548340 
	C282.113342,90.256294 276.340759,98.750549 270.191742,106.962982 
	C268.956665,108.612511 266.313873,110.064384 264.281006,110.117752 
	C253.167709,110.409546 242.042221,110.236450 230.456940,109.740799 
	C229.966232,108.752663 229.939484,108.246872 229.912735,107.741074 
	C241.490311,92.107735 253.067398,76.474030 264.646240,60.841621 
	C265.736053,59.370255 266.836884,57.907059 268.130737,56.139385 
z"/>
<path fill="#E36F39" opacity="1.000000" stroke="none" 
	d="
M155.000000,65.999817 
	C145.644882,65.999222 136.289764,65.998619 126.262825,65.926605 
	C125.325287,65.712891 125.118240,65.510544 124.969841,65.248177 
	C135.052170,65.194588 145.134491,65.140991 155.693558,65.139999 
	C156.170288,65.192596 156.143173,65.603485 155.825562,65.794075 
	C155.338638,65.989716 155.169327,65.994766 155.000000,65.999817 
z"/>
<path fill="#2C2C2B" opacity="1.000000" stroke="none" 
	d="
M359.928589,35.351707 
	C360.913605,35.020451 361.824554,35.040577 363.193481,35.085579 
	C362.385773,35.307995 361.120148,35.505543 359.928589,35.351707 
z"/>
<path fill="#E95101" opacity="1.000000" stroke="none" 
	d="
M229.627579,107.890854 
	C229.939484,108.246872 229.966232,108.752663 229.997894,109.638336 
	C229.427292,109.889626 228.851776,109.761047 228.276245,109.632462 
	C228.631638,109.101852 228.987030,108.571251 229.627579,107.890854 
z"/>
<path fill="#222221" opacity="1.000000" stroke="none" 
	d="
M224.341034,64.893906 
	C224.145706,64.385582 224.276352,63.861454 224.641739,63.188072 
	C224.806671,63.651917 224.736832,64.265015 224.341034,64.893906 
z"/>
<path fill="#262625" opacity="1.000000" stroke="none" 
	d="
M346.963531,5.652637 
	C346.529083,5.498272 346.270630,5.051720 346.010986,4.336262 
	C346.386353,4.498386 346.762939,4.929417 346.963531,5.652637 
z"/>
<path fill="#262625" opacity="1.000000" stroke="none" 
	d="
M230.683746,4.026947 
	C230.989059,4.253927 230.983810,4.471266 230.936707,5.012476 
	C230.720993,4.896666 230.547089,4.456985 230.683746,4.026947 
z"/>
<path fill="#2E2E2D" opacity="1.000000" stroke="none" 
	d="
M350.358459,110.094620 
	C350.173462,109.781769 350.358826,109.505775 350.769928,109.115372 
	C350.906738,109.377808 350.817780,109.754646 350.358459,110.094620 
z"/>
<path fill="#262625" opacity="1.000000" stroke="none" 
	d="
M309.678345,4.013295 
	C309.703857,4.286188 309.416992,4.533852 308.840576,4.840793 
	C308.822693,4.596068 309.094330,4.292067 309.678345,4.013295 
z"/>
<path fill="#EA5A07" opacity="1.000000" stroke="none" 
	d="
M156.806396,67.716072 
	C156.501038,67.806557 156.302719,67.566078 156.178055,67.006805 
	C156.375885,66.999901 156.596466,67.232262 156.806396,67.716072 
z"/>
<path fill="#EA5A07" opacity="1.000000" stroke="none" 
	d="
M155.142487,66.228218 
	C155.169327,65.994766 155.338638,65.989716 155.761993,65.989906 
	C156.016022,65.995148 156.245163,66.397133 156.252411,66.628250 
	C155.934753,66.725113 155.609848,66.590866 155.142487,66.228218 
z"/>
<path fill="#E2672A" opacity="1.000000" stroke="none" 
	d="
M2.083534,66.067863 
	C2.083534,66.067863 2.045348,65.648140 2.027127,65.438385 
	C2.008906,65.228622 2.060308,65.043381 2.284817,64.997040 
	C2.509326,64.950699 2.968548,64.884979 2.968548,64.884979 
	C13.673056,64.926643 24.377562,64.968307 35.751419,64.988213 
	C36.420773,64.966461 36.838650,64.981781 36.838650,64.981781 
	C36.878151,65.154526 36.917648,65.327271 36.440926,65.752510 
	C24.644312,66.025963 13.363924,66.046913 2.083534,66.067863 
z"/>
<path fill="#545454" opacity="1.000000" stroke="none" 
	d="
M105.847176,37.155960 
	C106.217766,37.810032 106.364845,38.639153 106.407066,39.770164 
	C106.076027,39.158371 105.849846,38.244690 105.847176,37.155960 
z"/>
<path fill="#2D3739" opacity="1.000000" stroke="none" 
	d="
M36.907890,64.660355 
	C36.838650,64.981781 36.420773,64.966461 36.216656,64.921120 
	C36.148579,64.372658 36.284622,63.869537 36.630104,63.202415 
	C36.885403,63.471920 36.931267,63.905426 36.907890,64.660355 
z"/>
<path fill="#292928" opacity="1.000000" stroke="none" 
	d="
M106.267227,109.083275 
	C106.191742,109.414719 105.876106,109.797516 105.274971,110.110214 
	C105.335342,109.738274 105.681206,109.436455 106.267227,109.083275 
z"/>
<path fill="#545454" opacity="1.000000" stroke="none" 
	d="
M71.845772,109.947632 
	C71.603325,110.016197 71.235237,109.848999 70.894150,109.345581 
	C71.187469,109.243538 71.453804,109.477707 71.845772,109.947632 
z"/>
<path fill="#2D3739" opacity="1.000000" stroke="none" 
	d="
M2.871623,64.693954 
	C2.968548,64.884979 2.509326,64.950699 2.283505,64.900925 
	C2.057684,64.851151 2.029813,64.440300 2.052863,64.235962 
	C2.361205,64.111092 2.594133,64.268196 2.871623,64.693954 
z"/>
<path fill="#FBFAF9" opacity="1.000000" stroke="none" 
	d="
M419.420105,65.257874 
	C419.192444,70.743500 418.779053,76.191841 418.236694,81.913452 
	C411.194824,83.364853 404.931824,86.762299 397.693451,87.252159 
	C391.623016,87.662964 385.290710,84.833313 383.724365,78.937317 
	C382.182556,73.133408 385.232513,67.350479 391.807709,66.399658 
	C400.128845,65.196342 408.657196,65.426086 417.789032,65.028931 
	C418.481873,65.020096 418.958160,64.961342 418.958160,64.961342 
	C418.958160,64.961342 419.234375,65.220596 419.420105,65.257874 
z"/>
<path fill="#26383B" opacity="1.000000" stroke="none" 
	d="
M450.872742,64.744743 
	C450.959015,64.894447 450.497192,64.993561 450.263977,64.956978 
	C450.282654,64.811943 450.534576,64.703491 450.872742,64.744743 
z"/>
<path fill="#26383B" opacity="1.000000" stroke="none" 
	d="
M418.887360,64.800293 
	C418.958160,64.961342 418.481873,65.020096 418.253052,64.948021 
	C418.288330,64.797043 418.552460,64.718147 418.887360,64.800293 
z"/>
<path fill="#EA5B0B" opacity="1.000000" stroke="none" 
	d="
M2.052376,109.024040 
	C2.038205,95.324303 2.024035,81.624565 2.500793,67.461128 
	C14.274490,66.996246 25.557259,66.995071 36.840027,66.993889 
	C36.889839,80.694534 36.939651,94.395172 36.724518,108.677269 
	C36.229935,109.466728 36.076199,109.720695 35.998363,110.020615 
	C25.305807,110.087997 14.613249,110.155373 3.360364,109.905792 
	C2.616256,109.313927 2.367036,109.125664 2.052376,109.024040 
z"/>
<path fill="#EA5701" opacity="1.000000" stroke="none" 
	d="
M36.896744,66.750168 
	C25.557259,66.995071 14.274490,66.996246 2.530174,66.992516 
	C2.068626,66.987602 2.039894,66.526672 2.061714,66.297272 
	C13.363924,66.046913 24.644312,66.025963 36.382824,66.011887 
	C36.878452,66.181328 36.915958,66.343880 36.896744,66.750168 
z"/>
<path fill="#EA5A07" opacity="1.000000" stroke="none" 
	d="
M124.956253,65.161560 
	C125.118240,65.510544 125.325287,65.712891 125.794128,65.938660 
	C125.814690,66.896721 125.632126,67.771309 125.172020,68.844902 
	C124.609840,67.949020 124.325195,66.854141 124.314461,65.393654 
	C124.588364,65.028046 125.001076,64.909615 125.001076,64.909615 
	C125.001076,64.909615 124.942673,65.074951 124.956253,65.161560 
z"/>
<path fill="#EA5A07" opacity="1.000000" stroke="none" 
	d="
M128.091919,81.343842 
	C128.695145,81.927910 129.306320,82.852798 129.886475,84.173340 
	C129.270248,83.607552 128.685059,82.646111 128.091919,81.343842 
z"/>
<path fill="#EA5A07" opacity="1.000000" stroke="none" 
	d="
M125.060181,71.337929 
	C125.543510,71.912140 125.984154,72.808319 126.183823,73.863419 
	C125.634407,73.234848 125.325958,72.447372 125.060181,71.337929 
z"/>
<path fill="#EA5701" opacity="1.000000" stroke="none" 
	d="
M36.280708,110.033844 
	C36.076199,109.720695 36.229935,109.466728 36.652534,109.142700 
	C36.751343,109.366806 36.657196,109.706932 36.280708,110.033844 
z"/>
<path fill="#EA5701" opacity="1.000000" stroke="none" 
	d="
M2.031540,109.274223 
	C2.367036,109.125664 2.616256,109.313927 2.901006,109.804695 
	C2.834030,110.069901 2.666083,110.119232 2.245474,110.097366 
	C1.998776,109.858917 2.004741,109.691658 2.031540,109.274223 
z"/>
<path fill="#26383B" opacity="1.000000" stroke="none" 
	d="
M124.905029,64.715752 
	C125.001076,64.909615 124.588364,65.028046 124.374939,65.051079 
	C124.109306,64.899765 124.057098,64.725418 124.061752,64.284073 
	C124.400879,64.114021 124.631012,64.282295 124.905029,64.715752 
z"/>
<path fill="#F9F9F9" opacity="1.000000" stroke="none" 
	d="
M162.287628,32.251106 
	C166.313797,30.433182 169.949387,28.104609 173.866165,27.444477 
	C184.741959,25.611477 192.286957,32.681984 192.708496,44.626247 
	C180.807922,44.626247 168.912125,44.626247 155.340012,44.626247 
	C157.802536,40.160255 159.913940,36.331055 162.287628,32.251106 
z"/>
</svg>