<svg version="1.1" id="Layer_1" xmlns="http://www.w3.org/2000/svg" xmlns:xlink="http://www.w3.org/1999/xlink" x="0px" y="0px"
	 width="100%" viewBox="0 0 160 148" enable-background="new 0 0 160 148" xml:space="preserve">
<path fill="#FFFEFE" opacity="1.000000" stroke="none" 
	d="
M115.000000,149.000000 
	C76.666672,149.000000 38.833344,149.000000 1.000010,149.000000 
	C1.000007,99.666679 1.000007,50.333355 1.000003,1.000023 
	C54.333317,1.000016 107.666634,1.000016 160.999969,1.000008 
	C160.999969,50.333313 160.999969,99.666626 160.999985,148.999969 
	C145.833328,149.000000 130.666672,149.000000 115.000000,149.000000 
M68.464333,81.380386 
	C68.485512,76.214561 68.427505,71.046387 68.580544,65.884476 
	C68.621536,64.501656 68.926392,62.819534 69.762642,61.821629 
	C73.034294,57.917526 82.132629,55.800777 86.902122,57.589249 
	C92.974831,59.866390 93.294586,65.032562 93.291931,70.363922 
	C93.285301,83.696304 93.289932,97.028687 93.290031,110.361069 
	C93.290047,112.107460 93.290031,113.853851 93.290031,115.549568 
	C102.577843,115.549568 111.017563,115.549568 119.924706,115.549568 
	C119.924706,98.996452 119.937943,82.708336 119.907600,66.420296 
	C119.903885,64.428619 119.824852,62.412174 119.512711,60.449841 
	C116.489212,41.442162 102.729324,31.635771 84.587074,36.351799 
	C78.505463,37.932701 72.991089,41.695755 67.144798,44.496174 
	C62.703968,37.036488 54.595207,34.716724 42.273624,37.915981 
	C42.273624,52.732639 42.273624,67.549301 42.129498,83.227097 
	C42.129498,93.968010 42.129498,104.708923 42.129498,115.466019 
	C51.240780,115.466019 59.628601,115.466019 68.205780,115.466019 
	C68.205780,104.206398 68.205780,93.264832 68.464333,81.380386 
z"/>
<path fill="#404040" opacity="1.000000" stroke="none" 
	d="
M42.273624,82.365959 
	C42.273624,67.549301 42.273624,52.732639 42.271183,37.915970 
	C54.595207,34.716724 62.703968,37.036488 67.144798,44.496174 
	C72.991089,41.695755 78.505463,37.932701 84.587074,36.351799 
	C102.729324,31.635771 116.489212,41.442162 119.512711,60.449841 
	C119.824852,62.412174 119.903885,64.428619 119.907600,66.420296 
	C119.937943,82.708336 119.924706,98.996452 119.924706,115.549568 
	C111.017563,115.549568 102.577843,115.549568 93.290031,115.549568 
	C93.290031,113.853851 93.290047,112.107460 93.290031,110.361069 
	C93.289932,97.028687 93.285301,83.696304 93.291931,70.363922 
	C93.294586,65.032562 92.974831,59.866390 86.902122,57.589249 
	C82.132629,55.800777 73.034294,57.917526 69.762642,61.821629 
	C68.926392,62.819534 68.621536,64.501656 68.580544,65.884476 
	C68.427505,71.046387 68.485512,76.214561 68.255333,81.751465 
	C68.046333,82.122543 67.933929,81.896355 67.914917,81.635422 
	C67.256294,81.601799 66.616692,81.829094 65.516045,82.141052 
	C58.043819,82.169273 51.032642,82.112823 43.935642,81.882904 
	C43.575523,81.809036 43.301228,81.908661 42.846523,82.114380 
	C42.666119,82.220490 42.273624,82.365959 42.273624,82.365959 
z"/>
<path fill="#FC5306" opacity="1.000000" stroke="none" 
	d="
M67.933929,81.896355 
	C67.933929,81.896355 68.046333,82.122543 68.126053,82.222900 
	C68.205780,93.264832 68.205780,104.206398 68.205780,115.466019 
	C59.628601,115.466019 51.240780,115.466019 42.129498,115.466019 
	C42.129498,104.708923 42.129498,93.968010 42.201561,82.796524 
	C42.273624,82.365959 42.666119,82.220490 43.092396,82.179474 
	C43.686268,82.111099 43.853863,82.083740 44.021461,82.056381 
	C51.032642,82.112823 58.043819,82.169273 65.847931,82.199562 
	C67.071892,82.081055 67.502907,81.988708 67.933929,81.896355 
z"/>
<path fill="#253A3E" opacity="1.000000" stroke="none" 
	d="
M67.914917,81.635422 
	C67.502907,81.988708 67.071892,82.081055 66.308975,82.114899 
	C66.616692,81.829094 67.256294,81.601799 67.914917,81.635422 
z"/>
<path fill="#253A3E" opacity="1.000000" stroke="none" 
	d="
M43.935642,81.882904 
	C43.853863,82.083740 43.686268,82.111099 43.272800,82.073364 
	C43.301228,81.908661 43.575523,81.809036 43.935642,81.882904 
z"/>
</svg>